<svg id="Layer_1" data-name="Layer 1" xmlns="http://www.w3.org/2000/svg" viewBox="0 0 477.24 214.44"><defs><style>.cls-1{fill-rule:evenodd;}</style></defs><polygon class="cls-1" points="63.93 18.46 31.97 36.9 31.97 0 0 18.46 0 195.98 31.97 214.44 121.78 162.59 121.78 125.68 57.86 88.77 57.86 125.68 89.82 144.13 31.96 177.54 31.97 36.91 153.75 107.22 153.75 144.13 185.71 125.68 185.71 88.76 63.93 18.46"/><path d="M288.48,197.19h7.29c8.73,0,14,3.84,14,12.28,0,12.66-7.48,18.89-17.26,18.89H282.24Zm3.83,25c5.18,0,9.6-3.26,9.6-12.27,0-4.9-2.69-6.62-6.33-6.62h-.68l-3.74,18.89Z" transform="translate(-73.72 -128.51)"/><path d="M318.31,197.19H326L322.62,214a23.85,23.85,0,0,0-.38,3.55c0,3.17,1,4.8,4.13,4.8,2.78,0,4.31-2.11,5.37-7.48l3.55-17.65h7.48l-3.55,17.46c-1.92,9.78-6,14.29-13.05,14.29-7.77,0-11.6-3.55-11.6-11.22a35.81,35.81,0,0,1,.67-5.28Z" transform="translate(-73.72 -128.51)"/><path d="M349.87,197.19h10.26c6.23,0,11,2.21,11,8.25,0,8.63-7,12.18-14.39,12.18h-3.35l-2.12,10.74h-7.67Zm7.57,14.39c4.13,0,6.14-2,6.14-5,0-2.3-1.63-3.36-4.51-3.36h-2.78l-1.63,8.35ZM356,215.8l5.47-5,6.81,17.55h-8Z" transform="translate(-73.72 -128.51)"/><path d="M384.4,197.19h9.21l3,31.17h-8.06l-.48-16.5c-.09-3-.19-5.75-.19-8.92h-.19c-1.25,3.07-2.3,5.95-3.65,8.92l-7.48,16.5h-8.44Zm-6.52,18.32h14.48L391,221.26H376.53Z" transform="translate(-73.72 -128.51)"/><path d="M405.69,197.19h10c6.33,0,10.84,2.11,10.84,7.19,0,3.36-2.4,6.43-6.72,7.77l-.09.19c3.54.87,5.27,2.79,5.27,5.66,0,7.48-6.43,10.36-13.72,10.36H399.46Zm6.14,25.32c3.84,0,5.75-1.63,5.75-4.22,0-2.3-1.34-3.45-4.21-3.45h-3.55l-1.54,7.67Zm1.63-12.85c3.74,0,5.18-1.54,5.18-3.93,0-1.73-1.34-2.69-4.22-2.69h-2.21l-1.34,6.62Z" transform="translate(-73.72 -128.51)"/><path d="M435,197.19h7.68l-5,24.75h11.32l-1.25,6.42h-19Z" transform="translate(-73.72 -128.51)"/><path d="M459.69,197.19h19l-1.25,6.43H466L465,209.08h9.69l-1.25,6.43h-9.69l-1.34,6.43h11.8l-1.25,6.42H453.46Z" transform="translate(-73.72 -128.51)"/><path d="M288.48,254.74h19l-1.25,6.43H294.81l-1.25,6.42h9.69L302,274h-9.69l-2.39,11.89h-7.68Z" transform="translate(-73.72 -128.51)"/><path d="M313,254.74h7.68l-3.36,16.79a23.58,23.58,0,0,0-.38,3.55c0,3.16.95,4.79,4.12,4.79,2.78,0,4.32-2.11,5.37-7.48L330,254.74h7.48l-3.55,17.46c-1.92,9.78-5.94,14.29-13,14.29-7.77,0-11.61-3.55-11.61-11.22A37.21,37.21,0,0,1,310,270Z" transform="translate(-73.72 -128.51)"/><path d="M344.59,254.74h10.26c6.24,0,11,2.21,11,8.25,0,8.63-7,12.18-14.38,12.18h-3.36L346,285.91h-7.67Zm7.58,14.39c4.12,0,6.14-2,6.14-5,0-2.3-1.63-3.36-4.51-3.36H351l-1.63,8.35Zm-1.44,4.22,5.47-5L363,285.91H355Z" transform="translate(-73.72 -128.51)"/><path d="M373.94,254.74h7.39l4.31,14.77,1.54,7h.19a107.42,107.42,0,0,1,1.25-11.79l2-10h7.29l-6.23,31.17H384.3L380,271.14l-1.44-7h-.2a99.44,99.44,0,0,1-1.34,11.7l-2,10.07h-7.29Z" transform="translate(-73.72 -128.51)"/><path d="M405.21,254.74h7.68l-6.24,31.17H399Z" transform="translate(-73.72 -128.51)"/><path d="M424.3,261.17h-7.87l1.25-6.43h23.4l-1.24,6.43H432l-4.89,24.74h-7.67Z" transform="translate(-73.72 -128.51)"/><path d="M445.79,254.74h7.67l-3.36,16.79a23.58,23.58,0,0,0-.38,3.55c0,3.16,1,4.79,4.12,4.79,2.78,0,4.32-2.11,5.37-7.48l3.55-17.65h7.48L466.7,272.2c-1.92,9.78-5.95,14.29-13.05,14.29-7.77,0-11.61-3.55-11.61-11.22a35.88,35.88,0,0,1,.68-5.28Z" transform="translate(-73.72 -128.51)"/><path d="M477.34,254.74h10.27c6.23,0,11,2.21,11,8.25,0,8.63-7,12.18-14.39,12.18h-3.36l-2.11,10.74h-7.67Zm7.58,14.39c4.12,0,6.14-2,6.14-5,0-2.3-1.63-3.36-4.51-3.36h-2.78l-1.63,8.35Zm-1.44,4.22,5.47-5,6.81,17.55H487.7Z" transform="translate(-73.72 -128.51)"/><path d="M506.69,254.74h19l-1.25,6.43H513L512,266.64h9.69l-1.25,6.42h-9.69l-1.34,6.43h11.8l-1.25,6.42H500.46Z" transform="translate(-73.72 -128.51)"/><path d="M525,280.5l5.47-4.32A8.57,8.57,0,0,0,537,280c2.21,0,3.65-1,3.65-2.74,0-1.39-1.39-2-3.55-3.35l-2.68-1.68c-2.88-1.82-4.61-4.08-4.61-8,0-5.61,5.13-10.07,11.46-10.07A12.82,12.82,0,0,1,551,259l-4.8,4.51c-1.58-1.58-3.16-2.74-5.17-2.74-2.21,0-3.31,1.2-3.31,2.69,0,1.3,1.34,1.87,3.83,3.45l2.88,1.78c3,1.82,4.22,3.79,4.22,7.43,0,5.71-4.7,10.36-12.18,10.36A13.94,13.94,0,0,1,525,280.5Z" transform="translate(-73.72 -128.51)"/></svg>